<svg class="piano-keys" version="1.1" xmlns="http://www.w3.org/2000/svg" xmlns:xlink="http://www.w3.org/1999/xlink" viewBox="0 0 1197.8 140.7"><defs><linearGradient id="GradientBlack" x1="0" x2="0" y1="0" y2="1"><stop offset="0%" stop-color="#494949"/><stop offset="70%" stop-color="#222" stop-opacity="1"/><stop offset="100%" stop-color="#000"/></linearGradient><linearGradient id="GradientWhite" x1="0" x2="0" y1="0" y2="1"><stop offset="0%" stop-color="#dfdfdf"/><stop offset="50%" stop-color="#f2f2f2" stop-opacity="1"/><stop offset="100%" stop-color="#fff"/></linearGradient></defs><rect rx="1.5" y="20" x="0.5" class="note note-white keyA0"/><rect rx="1.5" y="20" x="23.5" class="note note-white keyB0"/><rect rx="1.5" y="20" x="20.2" class="note note-black keyA#0"/><rect rx="1.5" y="20" x="46.5" class="note note-white keyC1"/><rect rx="1.5" y="20" x="69.5" class="note note-white keyD1"/><rect rx="1.5" y="20" x="92.5" class="note note-white keyE1"/><rect rx="1.5" y="20" x="115.5" class="note note-white keyF1"/><rect rx="1.5" y="20" x="138.5" class="note note-white keyG1"/><rect rx="1.5" y="20" x="161.5" class="note note-white keyA1"/><rect rx="1.5" y="20" x="184.5" class="note note-white keyB1"/><rect rx="1.5" y="20" x="60.8" class="note note-black keyC#1"/><rect rx="1.5" y="20" x="88.2" class="note note-black keyD#1"/><rect rx="1.5" y="20" x="128.8" class="note note-black keyF#1"/><rect rx="1.5" y="20" x="154.8" class="note note-black keyG#1"/><rect rx="1.5" y="20" x="181.2" class="note note-black keyA#1"/><rect rx="1.5" y="20" x="207.5" class="note note-white keyC2"/><rect rx="1.5" y="20" x="230.5" class="note note-white keyD2"/><rect rx="1.5" y="20" x="253.5" class="note note-white keyE2"/><rect rx="1.5" y="20" x="276.5" class="note note-white keyF2"/><rect rx="1.5" y="20" x="299.5" class="note note-white keyG2"/><rect rx="1.5" y="20" x="322.5" class="note note-white keyA2"/><rect rx="1.5" y="20" x="345.5" class="note note-white keyB2"/><rect rx="1.5" y="20" x="221.8" class="note note-black keyC#2"/><rect rx="1.5" y="20" x="249.2" class="note note-black keyD#2"/><rect rx="1.5" y="20" x="289.8" class="note note-black keyF#2"/><rect rx="1.5" y="20" x="315.8" class="note note-black keyG#2"/><rect rx="1.5" y="20" x="342.2" class="note note-black keyA#2"/><rect rx="1.5" y="20" x="368.5" class="note note-white keyC3"/><rect rx="1.5" y="20" x="391.5" class="note note-white keyD3"/><rect rx="1.5" y="20" x="414.5" class="note note-white keyE3"/><rect rx="1.5" y="20" x="437.5" class="note note-white keyF3"/><rect rx="1.5" y="20" x="460.5" class="note note-white keyG3"/><rect rx="1.5" y="20" x="483.5" class="note note-white keyA3"/><rect rx="1.5" y="20" x="506.5" class="note note-white keyB3"/><rect rx="1.5" y="20" x="382.8" class="note note-black keyC#3"/><rect rx="1.5" y="20" x="410.2" class="note note-black keyD#3"/><rect rx="1.5" y="20" x="450.8" class="note note-black keyF#3"/><rect rx="1.5" y="20" x="476.8" class="note note-black keyG#3"/><rect rx="1.5" y="20" x="503.2" class="note note-black keyA#3"/><rect rx="1.5" y="20" x="529.5" class="note note-white keyC4"/><rect rx="1.5" y="20" x="552.5" class="note note-white keyD4"/><rect rx="1.5" y="20" x="575.5" class="note note-white keyE4"/><rect rx="1.5" y="20" x="598.5" class="note note-white keyF4"/><rect rx="1.5" y="20" x="621.5" class="note note-white keyG4"/><rect rx="1.5" y="20" x="644.5" class="note note-white keyA4"/><rect rx="1.5" y="20" x="667.5" class="note note-white keyB4"/><rect rx="1.5" y="20" x="543.8" class="note note-black keyC#4"/><rect rx="1.5" y="20" x="571.2" class="note note-black keyD#4"/><rect rx="1.5" y="20" x="611.8" class="note note-black keyF#4"/><rect rx="1.5" y="20" x="637.8" class="note note-black keyG#4"/><rect rx="1.5" y="20" x="664.2" class="note note-black keyA#4"/><rect rx="1.5" y="20" x="690.52" class="note note-white keyC5"/><rect rx="1.5" y="20" x="713.52" class="note note-white keyD5"/><rect rx="1.5" y="20" x="736.52" class="note note-white keyE5"/><rect rx="1.5" y="20" x="759.52" class="note note-white keyF5"/><rect rx="1.5" y="20" x="782.52" class="note note-white keyG5"/><rect rx="1.5" y="20" x="805.52" class="note note-white keyA5"/><rect rx="1.5" y="20" x="828.52" class="note note-white keyB5"/><rect rx="1.5" y="20" x="704.82" class="note note-black keyC#5"/><rect rx="1.5" y="20" x="732.12" class="note note-black keyD#5"/><rect rx="1.5" y="20" x="772.72" class="note note-black keyF#5"/><rect rx="1.5" y="20" x="798.72" class="note note-black keyG#5"/><rect rx="1.5" y="20" x="825.22" class="note note-black keyA#5"/><rect rx="1.5" y="20" x="851.52" class="note note-white keyC6"/><rect rx="1.5" y="20" x="874.52" class="note note-white keyD6"/><rect rx="1.5" y="20" x="897.52" class="note note-white keyE6"/><rect rx="1.5" y="20" x="920.52" class="note note-white keyF6"/><rect rx="1.5" y="20" x="943.52" class="note note-white keyG6"/><rect rx="1.5" y="20" x="966.52" class="note note-white keyA6"/><rect rx="1.5" y="20" x="989.52" class="note note-white keyB6"/><rect rx="1.5" y="20" x="865.82" class="note note-black keyC#6"/><rect rx="1.5" y="20" x="893.12" class="note note-black keyD#6"/><rect rx="1.5" y="20" x="933.72" class="note note-black keyF#6"/><rect rx="1.5" y="20" x="959.72" class="note note-black keyG#6"/><rect rx="1.5" y="20" x="986.22" class="note note-black keyA#6"/><rect rx="1.5" y="20" x="1012.52" class="note note-white keyC7"/><rect rx="1.5" y="20" x="1035.52" class="note note-white keyD7"/><rect rx="1.5" y="20" x="1058.52" class="note note-white keyE7"/><rect rx="1.5" y="20" x="1081.52" class="note note-white keyF7"/><rect rx="1.5" y="20" x="1104.52" class="note note-white keyG7"/><rect rx="1.5" y="20" x="1127.52" class="note note-white keyA7"/><rect rx="1.5" y="20" x="1150.52" class="note note-white keyB7"/><rect rx="1.5" y="20" x="1026.82" class="note note-black keyC#7"/><rect rx="1.5" y="20" x="1054.12" class="note note-black keyD#7"/><rect rx="1.5" y="20" x="1094.72" class="note note-black keyF#7"/><rect rx="1.5" y="20" x="1120.72" class="note note-black keyG#7"/><rect rx="1.5" y="20" x="1147.22" class="note note-black keyA#7"/><rect rx="1.5" y="20" x="1173.52" class="note note-white keyC8"/><circle r="5.7" class="middle-c" cx="541.1" cy="125"></circle><circle cx="13.6" cy="9" r="5.7" class="note indicator keyA0"/><circle cx="26.7" cy="9" r="5.7" class="note indicator keyA#0"/><circle cx="39.8" cy="9" r="5.7" class="note indicator keyB0"/><circle cx="53.4" cy="9" r="5.7" class="note indicator keyC1"/><circle cx="67" cy="9" r="5.7" class="note indicator keyC#1"/><circle cx="80.7" cy="9" r="5.7" class="note indicator keyD1"/><circle cx="94.4" cy="9" r="5.7" class="note indicator keyD#1"/><circle cx="108.1" cy="9" r="5.7" class="note indicator keyE1"/><circle cx="121.9" cy="9" r="5.7" class="note indicator keyF1"/><circle cx="135" cy="9" r="5.7" class="note indicator keyF#1"/><circle cx="148" cy="9" r="5.7" class="note indicator keyG1"/><circle cx="161.1" cy="9" r="5.7" class="note indicator keyG#1"/><circle cx="174.5" cy="9" r="5.7" class="note indicator keyA1"/><circle cx="187.7" cy="9" r="5.7" class="note indicator keyA#1"/><circle cx="200.9" cy="9" r="5.7" class="note indicator keyB1"/><circle cx="214.6" cy="9" r="5.7" class="note indicator keyC2"/><circle cx="228.3" cy="9" r="5.7" class="note indicator keyC#2"/><circle cx="242" cy="9" r="5.7" class="note indicator keyD2"/><circle cx="255.6" cy="9" r="5.7" class="note indicator keyD#2"/><circle cx="269.4" cy="9" r="5.7" class="note indicator keyE2"/><circle cx="283.1" cy="9" r="5.7" class="note indicator keyF2"/><circle cx="296.3" cy="9" r="5.7" class="note indicator keyF#2"/><circle cx="309.3" cy="9" r="5.7" class="note indicator keyG2"/><circle cx="322.4" cy="9" r="5.7" class="note indicator keyG#2"/><circle cx="335.5" cy="9" r="5.7" class="note indicator keyA2"/><circle cx="348.7" cy="9" r="5.7" class="note indicator keyA#2"/><circle cx="361.9" cy="9" r="5.7" class="note indicator keyB2"/><circle cx="375.4" cy="9" r="5.7" class="note indicator keyC3"/><circle cx="389" cy="9" r="5.7" class="note indicator keyC#3"/><circle cx="402.8" cy="9" r="5.7" class="note indicator keyD3"/><circle cx="416.4" cy="9" r="5.7" class="note indicator keyD#3"/><circle cx="430.1" cy="9" r="5.7" class="note indicator keyE3"/><circle cx="443.9" cy="9" r="5.7" class="note indicator keyF3"/><circle cx="457" cy="9" r="5.7" class="note indicator keyF#3"/><circle cx="470" cy="9" r="5.7" class="note indicator keyG3"/><circle cx="483.1" cy="9" r="5.7" class="note indicator keyG#3"/><circle cx="496.2" cy="9" r="5.7" class="note indicator keyA3"/><circle cx="509.5" cy="9" r="5.7" class="note indicator keyA#3"/><circle cx="522.6" cy="9" r="5.7" class="note indicator keyB3"/><circle cx="536.5" cy="9" r="5.7" class="note indicator keyC4"/><circle cx="550.2" cy="9" r="5.7" class="note indicator keyC#4"/><circle cx="563.9" cy="9" r="5.7" class="note indicator keyD4"/><circle cx="577.5" cy="9" r="5.7" class="note indicator keyD#4"/><circle cx="591.2" cy="9" r="5.7" class="note indicator keyE4"/><circle cx="605" cy="9" r="5.7" class="note indicator keyF4"/><circle cx="618.2" cy="9" r="5.7" class="note indicator keyF#4"/><circle cx="631.2" cy="9" r="5.7" class="note indicator keyG4"/><circle cx="644.3" cy="9" r="5.7" class="note indicator keyG#4"/><circle cx="657.4" cy="9" r="5.7" class="note indicator keyA4"/><circle cx="670.6" cy="9" r="5.7" class="note indicator keyA#4"/><circle cx="683.7" cy="9" r="5.7" class="note indicator keyB4"/><circle cx="697.3" cy="9" r="5.7" class="note indicator keyC5"/><circle cx="710.9" cy="9" r="5.7" class="note indicator keyC#5"/><circle cx="724.6" cy="9" r="5.7" class="note indicator keyD5"/><circle cx="738.3" cy="9" r="5.7" class="note indicator keyD#5"/><circle cx="752" cy="9" r="5.7" class="note indicator keyE5"/><circle cx="765.8" cy="9" r="5.7" class="note indicator keyF5"/><circle cx="778.9" cy="9" r="5.7" class="note indicator keyF#5"/><circle cx="791.9" cy="9" r="5.7" class="note indicator keyG5"/><circle cx="805" cy="9" r="5.7" class="note indicator keyG#5"/><circle cx="818.1" cy="9" r="5.7" class="note indicator keyA5"/><circle cx="831.3" cy="9" r="5.7" class="note indicator keyA#5"/><circle cx="844.5" cy="9" r="5.7" class="note indicator keyB5"/><circle cx="858.5" cy="9" r="5.7" class="note indicator keyC6"/><circle cx="872.2" cy="9" r="5.7" class="note indicator keyC#6"/><circle cx="885.9" cy="9" r="5.7" class="note indicator keyD6"/><circle cx="899.5" cy="9" r="5.7" class="note indicator keyD#6"/><circle cx="913.2" cy="9" r="5.7" class="note indicator keyE6"/><circle cx="927" cy="9" r="5.7" class="note indicator keyF6"/><circle cx="940.2" cy="9" r="5.7" class="note indicator keyF#6"/><circle cx="953.2" cy="9" r="5.7" class="note indicator keyG6"/><circle cx="966.3" cy="9" r="5.7" class="note indicator keyG#6"/><circle cx="979.4" cy="9" r="5.7" class="note indicator keyA6"/><circle cx="992.6" cy="9" r="5.7" class="note indicator keyA#6"/><circle cx="1005.7" cy="9" r="5.7" class="note indicator keyB6"/><circle cx="1019.3" cy="9" r="5.7" class="note indicator keyC7"/><circle cx="1032.9" cy="9" r="5.7" class="note indicator keyC#7"/><circle cx="1046.6" cy="9" r="5.7" class="note indicator keyD7"/><circle cx="1060.3" cy="9" r="5.7" class="note indicator keyD#7"/><circle cx="1074" cy="9" r="5.7" class="note indicator keyE7"/><circle cx="1087.8" cy="9" r="5.7" class="note indicator keyF7"/><circle cx="1100.9" cy="9" r="5.7" class="note indicator keyF#7"/><circle cx="1113.9" cy="9" r="5.7" class="note indicator keyG7"/><circle cx="1127" cy="9" r="5.7" class="note indicator keyG#7"/><circle cx="1140.1" cy="9" r="5.7" class="note indicator keyA7"/><circle cx="1153.3" cy="9" r="5.7" class="note indicator keyA#7"/><circle cx="1166.5" cy="9" r="5.7" class="note indicator keyB7"/><circle cx="1180.5" cy="9" r="5.7" class="note indicator keyC8"/><line class="top-line" x2="1197" x1="0" y2="20" y1="20"/></svg>